<?xml version="1.0" encoding="UTF-8"?>
<svg id="Layer_2" data-name="Layer 2" xmlns="http://www.w3.org/2000/svg" viewBox="0 0 25 24.03">
  <defs>
    <style>
      .cls-1 {
        opacity: .7;
      }

      .cls-1, .cls-2 {
        fill: #754d29;
      }

      .cls-3 {
        fill: #754c29;
      }

      .cls-4 {
        fill: #935e23;
      }
    </style>
  </defs>
  <g id="Layer_1-2" data-name="Layer 1">
    <g>
      <path class="cls-1" d="m0,7.08c0,5.82,2.17,10.96,5.47,14.01l1.86-6.8C3.01,9.07,0,.22,0,7.08Z"/>
      <path class="cls-2" d="m12.5,17.63c-1.85,0-3.6-1.43-5.17-3.33l-1.86,6.8c2,1.85,4.42,2.94,7.03,2.94s5.04-1.09,7.04-2.95l-1.91-6.74c-1.57,1.88-3.3,3.29-5.13,3.29Z"/>
      <path class="cls-1" d="m17.63,14.34l1.91,6.74c3.29-3.05,5.46-8.18,5.46-14,0-6.88-3.02,2.04-7.37,7.26Z"/>
      <g>
        <path class="cls-3" d="m10.27,3.43c-.56-.13-1.96-1.66-2.53-1.71-2.34-.21-5.12-.06-3.85-.87,2.19-1.39,6.09-1.23,8.01,1.54"/>
        <path class="cls-3" d="m14.73,3.43c.56-.13,1.96-1.66,2.53-1.71,2.34-.21,5.12-.06,3.85-.87-2.19-1.39-6.09-1.23-8.01,1.54"/>
      </g>
      <g>
        <path class="cls-4" d="m12.56,11.82c-.52.86-3.12.81-3.57,1.78-1.82,3.99-3.57,9.27-3.57,5.93,0-5.77,2.84-12.67,7.14-12.67"/>
        <path class="cls-4" d="m12.44,11.82c.52.86,3.12.81,3.57,1.78,1.82,3.99,3.57,9.27,3.57,5.93,0-5.77-2.84-12.67-7.14-12.67"/>
      </g>
    </g>
  </g>
</svg>