<?xml version="1.0" encoding="UTF-8"?>
<svg id="Layer_2" data-name="Layer 2" xmlns="http://www.w3.org/2000/svg" viewBox="0 0 80 80">
  <defs>
    <style>
      .cls-1 {
        fill: #754c29;
      }

      .cls-2 {
        fill: #935e23;
      }
    </style>
  </defs>
  <g id="Layer_1-2" data-name="Layer 1">
    <g>
      <path class="cls-1" d="m80,23.57c0,31.16-17.9,56.43-40,56.43S0,54.74,0,23.57s17.91,35.12,40,35.12S80-7.59,80,23.57"/>
      <path class="cls-1" d="m32.88,11.43c-1.78-.42-6.28-5.51-8.1-5.68-7.47-.7-16.4-.19-12.33-2.89C19.46-1.79,31.94-1.24,38.1,7.98"/>
      <path class="cls-2" d="m40.19,39.36c-1.65,2.87-10,2.69-11.43,5.94-5.83,13.29-11.43,30.88-11.43,19.74,0-19.21,9.1-42.18,22.86-42.18"/>
      <path class="cls-2" d="m39.81,39.36c1.65,2.87,10,2.69,11.43,5.94,5.83,13.29,11.43,30.88,11.43,19.74,0-19.21-9.1-42.18-22.86-42.18"/>
      <path class="cls-1" d="m47.12,11.43c1.78-.42,6.28-5.51,8.1-5.68,7.47-.7,16.4-.19,12.33-2.89-7.01-4.64-19.49-4.09-25.65,5.13"/>
    </g>
  </g>
</svg>